<svg width="89" height="48" viewBox="0 0 89 48" fill="none" xmlns="http://www.w3.org/2000/svg">
<path d="M56.3192 15.0403V12.1603H51.1992V35.8403H56.3192V24.3203C56.3192 20.4483 59.4872 17.2803 63.3592 17.2803V11.8403C60.1912 11.8403 57.8872 13.0563 56.3192 15.0403Z" fill="black"/>
<path d="M20.032 12.1602L12.8 30.2402L5.568 12.1602H0L9.6 35.8402H16L25.6 12.1602H20.032Z" fill="black"/>
<path d="M15.9996 12.1602H9.59961L12.7996 20.1602L15.9996 12.1602Z" fill="#00B491"/>
<path d="M84.1609 12.1603L83.8729 14.1443C82.0489 12.7043 79.7449 11.8403 77.1209 11.8403C70.4009 11.8403 64.9609 17.2803 64.9609 24.0003C64.9609 30.7203 70.4009 36.1603 77.1209 36.1603C79.7769 36.1603 82.0489 35.2963 83.8729 33.8563L84.1609 35.8403H88.9609V12.1603H84.1609ZM77.1209 31.0403C73.2489 31.0403 70.0809 27.8723 70.0809 24.0003C70.0809 20.1283 73.2489 16.9603 77.1209 16.9603C80.9929 16.9603 84.1609 20.1283 84.1609 24.0003C84.1609 27.8723 80.9929 31.0403 77.1209 31.0403Z" fill="#00050A"/>
<path d="M34.7516 30.7203L47.9996 17.4403C45.8556 14.0803 42.0476 11.8403 37.7596 11.8403C31.0396 11.8403 25.5996 17.2803 25.5996 24.0003C25.5996 30.7203 31.0396 36.1603 37.7596 36.1603C41.9836 36.1603 45.6956 33.9843 47.8716 30.7203H34.7516ZM32.7676 19.0083C34.8796 16.8963 38.0476 16.4163 40.6396 17.5683L31.3276 26.8803C30.1756 24.2883 30.6556 21.1523 32.7676 19.0083Z" fill="black"/>
</svg>
